<svg width="120" height="39" viewBox="0 0 120 39" fill="none" xmlns="http://www.w3.org/2000/svg">
<g id="Group 427319109">
<g id="Group 427319104">
<g id="&#60;Radial Repeat&#62;">
<path id="Vector" d="M29.5799 16.5528L34.5812 15.8721C34.684 16.0277 34.7785 16.1833 34.873 16.3472L28.374 17.0335L29.5799 16.5528Z" fill="url(#paint0_linear_527_41769)"/>
<path id="Vector_2" d="M35.9708 18.5636L28.0576 18.3885C28.0618 18.3274 28.0618 18.2662 28.0576 18.2051V18.0245L35.7013 17.9189C35.7624 18.0551 35.8208 18.1968 35.8791 18.3329L35.9708 18.5636Z" fill="url(#paint1_linear_527_41769)"/>
<path id="Vector_3" d="M36.6954 21.0172L27.9375 19.6919C27.9542 19.5502 27.9792 19.414 27.9958 19.2695L36.5009 20.1948C36.5731 20.4671 36.6398 20.7421 36.6954 21.0172Z" fill="url(#paint2_linear_527_41769)"/>
<path id="Vector_4" d="M36.9963 23.6379L27.6494 20.9761L27.7189 20.7399L27.7772 20.501L36.9463 22.646C36.9723 22.9776 36.9889 23.3082 36.9963 23.6379Z" fill="url(#paint3_linear_527_41769)"/>
<path id="Vector_5" d="M36.8173 26.3321L27.1953 22.2144C27.2398 22.131 27.2675 22.0449 27.3037 21.9587L27.4093 21.7031L36.9535 25.1985C36.9229 25.5791 36.8784 25.957 36.8173 26.3321Z" fill="url(#paint4_linear_527_41769)"/>
<path id="Vector_6" d="M36.1404 29.008L26.5879 23.3843L26.7407 23.1064C26.7693 23.0636 26.7953 23.019 26.8185 22.9731L26.888 22.8369L36.5266 27.7716C36.4099 28.1883 36.2849 28.6023 36.1404 29.008Z" fill="url(#paint5_linear_527_41769)"/>
<path id="Vector_7" d="M34.9593 31.5563L25.8291 24.4655L25.9347 24.3321C25.972 24.2901 26.0063 24.2455 26.0375 24.1987L26.2348 23.9209L35.6261 30.2698C35.415 30.7227 35.201 31.1423 34.9593 31.5563Z" fill="url(#paint6_linear_527_41769)"/>
<path id="Vector_8" d="M33.6473 33.4649C33.5195 33.5955 33.3945 33.7233 33.2611 33.8428L24.9395 25.4433C25.0339 25.3628 25.1145 25.2711 25.2006 25.1821C25.2868 25.0932 25.3757 25.0099 25.4535 24.9043L34.2836 32.6119L33.6473 33.4649Z" fill="url(#paint7_linear_527_41769)"/>
<path id="Vector_9" d="M32.4332 34.6128L32.097 34.8906L31.9303 35.0268C31.8747 35.0768 31.8219 35.1213 31.7664 35.1657L31.0745 35.6964L24.5784 27.1469L24.4005 26.9108L23.9365 26.2967C24.0378 26.2107 24.1435 26.13 24.2533 26.055C24.2796 26.0333 24.3047 26.0101 24.3283 25.9855L24.4061 25.9216L24.5589 25.791L32.4332 34.6128Z" fill="url(#paint8_linear_527_41769)"/>
<path id="Vector_10" d="M23.5277 28.2412L28.6624 37.2353L29.0681 37.0102C29.207 36.9269 29.3459 36.8463 29.4737 36.7657L29.8683 36.5157L30.0655 36.3906L30.26 36.26L25.4866 29.3471L24.9309 28.5135L23.5583 26.5547L23.4694 26.6158L23.3749 26.6742L23.1915 26.7853C23.1315 26.8265 23.0693 26.8645 23.0053 26.8992L22.8164 27.0048L23.0387 27.391L23.5277 28.2412Z" fill="url(#paint9_linear_527_41769)"/>
<path id="Vector_11" d="M27.9126 37.6355L27.4597 37.8523L27.2375 37.9662L27.0096 38.0662L26.0899 38.4608L22.2611 29.1361L21.761 27.9219L21.6221 27.5801C21.7666 27.5106 21.8999 27.4467 22.0527 27.3912L22.1111 27.3662C22.1269 27.3562 22.1436 27.3478 22.1611 27.3411L22.2611 27.2911L22.4779 27.1855L23.467 29.086L24.0894 30.2864L27.9126 37.6355Z" fill="url(#paint10_linear_527_41769)"/>
</g>
<g id="&#60;Radial Repeat&#62;_2">
<path id="Vector_12" d="M22.4623 34.3341L21.7148 27.5517L21.8677 27.5351C21.9189 27.5315 21.97 27.525 22.0205 27.5156L22.9429 34.0451C22.7846 34.1535 22.6345 34.248 22.4623 34.3341Z" fill="url(#paint11_linear_527_41769)"/>
<path id="Vector_13" d="M20.2109 35.4068L20.3888 27.627C20.4499 27.627 20.5138 27.627 20.5749 27.627H20.7583L20.8639 35.154C20.725 35.2151 20.586 35.2734 20.4443 35.329L20.2109 35.4068Z" fill="url(#paint12_linear_527_41769)"/>
<path id="Vector_14" d="M17.7188 36.1241L19.0635 27.5107C19.208 27.5274 19.3414 27.5524 19.4942 27.5691L18.5523 35.9435C18.2772 36.0019 17.9994 36.0713 17.7188 36.1241Z" fill="url(#paint13_linear_527_41769)"/>
<path id="Vector_15" d="M15.0596 36.4212L17.7603 27.2188L17.9992 27.2882L18.2438 27.3438L16.0626 36.3656C15.7292 36.3934 15.393 36.4129 15.0596 36.4212Z" fill="url(#paint14_linear_527_41769)"/>
<path id="Vector_16" d="M12.3203 36.2464L16.502 26.7744C16.5881 26.8161 16.677 26.8439 16.7632 26.88L17.0243 26.9828L13.4651 36.3797C13.0835 36.3501 12.7019 36.3056 12.3203 36.2464Z" fill="url(#paint15_linear_527_41769)"/>
<path id="Vector_17" d="M9.60254 35.5763L15.3124 26.1738L15.5902 26.3239C15.6347 26.3489 15.6791 26.3794 15.7236 26.4017L15.8653 26.4711L10.864 35.9514C10.4333 35.8431 10.0138 35.7236 9.60254 35.5763Z" fill="url(#paint16_linear_527_41769)"/>
<path id="Vector_18" d="M7.01074 34.4153L14.2182 25.4268L14.3516 25.5296C14.3951 25.5662 14.4405 25.6006 14.4877 25.6324L14.7656 25.8269L8.31664 35.0738C7.87208 34.8737 7.43678 34.6542 7.01074 34.4153Z" fill="url(#paint17_linear_527_41769)"/>
<path id="Vector_19" d="M5.07582 33.1235C4.94523 33.0012 4.81464 32.8762 4.69238 32.7456L13.2308 24.5518C13.3113 24.6434 13.4058 24.7212 13.4947 24.8074C13.5836 24.8935 13.6725 24.9796 13.7726 25.0574L5.93716 33.7514L5.07582 33.1235Z" fill="url(#paint18_linear_527_41769)"/>
<path id="Vector_20" d="M12.8761 24.1731L3.92098 31.9279L3.64312 31.5973L3.5042 31.4334C3.45419 31.3778 3.40973 31.3278 3.36527 31.2722C3.17911 31.0471 3.00129 30.8165 2.80957 30.5915L11.4869 24.2009L11.7258 24.0258L12.3482 23.5674C12.4316 23.6674 12.5149 23.7758 12.5955 23.8814L12.6594 23.9564L12.7289 24.0314L12.8761 24.1731Z" fill="url(#paint19_linear_527_41769)"/>
<path id="Vector_21" d="M12.0949 23.193L10.0972 24.5294L9.26361 25.0851L2.23952 29.7919L2.10615 29.5974L1.97834 29.4029L1.73106 29.0112C1.64214 28.8806 1.55879 28.7472 1.48377 28.6166L1.23926 28.2221L10.375 23.168L11.2308 22.6845L11.6309 22.4678L11.7393 22.6539C11.7754 22.7178 11.8143 22.7734 11.8532 22.8345L11.9671 23.0179L12.0227 23.1096L12.0949 23.193Z" fill="url(#paint20_linear_527_41769)"/>
<path id="Vector_22" d="M11.4475 22.1093L9.50252 23.0901L8.29109 23.7014L0.839112 27.458L0.61683 27.0162L0.502915 26.7967L0.400107 26.5716C0.261181 26.2715 0.122255 25.9659 0 25.6658L9.47196 21.8954L10.7028 21.4036L11.0529 21.2646C11.1141 21.4091 11.178 21.5425 11.2419 21.6898L11.2669 21.7453C11.2669 21.7453 11.2808 21.7787 11.2919 21.7953L11.3447 21.8954L11.4475 22.1093Z" fill="url(#paint21_linear_527_41769)"/>
</g>
<g id="&#60;Radial Repeat&#62;_3">
<path id="Vector_23" d="M9.48035 21.9029L4.47902 22.5864C4.37622 22.4281 4.28175 22.2725 4.20117 22.1113L10.714 21.4111L9.48035 21.9029Z" fill="url(#paint22_linear_527_41769)"/>
<path id="Vector_24" d="M3.10352 19.8857L11.0139 20.058C11.0139 20.1191 11.0139 20.1803 11.0139 20.2414V20.4414L3.37025 20.547C3.3119 20.4109 3.25077 20.2692 3.1952 20.133C3.16186 20.0469 3.1313 19.9719 3.10352 19.8857Z" fill="url(#paint23_linear_527_41769)"/>
<path id="Vector_25" d="M2.37598 17.4404L11.1311 18.7741C11.1144 18.9158 11.0894 19.052 11.0727 19.1964L2.56769 18.2712C2.49545 17.9906 2.43155 17.7155 2.37598 17.4404Z" fill="url(#paint24_linear_527_41769)"/>
<path id="Vector_26" d="M2.07324 14.8203L11.4202 17.4821L11.3507 17.7183L11.2951 17.9573L2.12603 15.8122C2.09084 15.4807 2.07324 15.15 2.07324 14.8203Z" fill="url(#paint25_linear_527_41769)"/>
<path id="Vector_27" d="M2.25041 12.126L11.8724 16.2437C11.8307 16.3271 11.8002 16.4132 11.764 16.4994L11.6612 16.755L2.11426 13.2596C2.14482 12.879 2.19206 12.5011 2.25041 12.126Z" fill="url(#paint26_linear_527_41769)"/>
<path id="Vector_28" d="M2.93241 9.44922L12.4822 15.0729C12.4322 15.1618 12.3821 15.2508 12.3293 15.3508C12.3043 15.3952 12.2738 15.4369 12.2516 15.4842L12.1821 15.6203L2.55176 10.6968C2.66012 10.2689 2.78793 9.85488 2.93241 9.44922Z" fill="url(#paint27_linear_527_41769)"/>
<path id="Vector_29" d="M4.11201 6.89893L13.2422 13.9925L13.1366 14.1258C13.0984 14.1678 13.0631 14.2124 13.031 14.2592L12.8338 14.5371L3.44238 8.18816C3.64521 7.74637 3.8675 7.3157 4.11201 6.89893Z" fill="url(#paint28_linear_527_41769)"/>
<path id="Vector_30" d="M5.42384 4.99311C5.54887 4.86252 5.67391 4.73471 5.80728 4.61523L14.1428 13.0202C14.0484 13.1008 13.9678 13.1925 13.8816 13.2814C13.7955 13.3703 13.7066 13.4537 13.6288 13.5593L4.7959 5.85168L5.42384 4.99311Z" fill="url(#paint29_linear_527_41769)"/>
<path id="Vector_31" d="M15.1323 12.1674L14.8128 12.412C14.7878 12.4314 14.7627 12.4564 14.7377 12.4731L14.6627 12.5425L14.5099 12.6676L6.63281 3.85691L6.96901 3.57906L7.13295 3.44013C7.18472 3.39029 7.24047 3.34475 7.29965 3.30399C7.52749 3.1206 7.76089 2.94555 7.99151 2.77051L14.4849 11.3144L14.6683 11.5589L15.1323 12.1674Z" fill="url(#paint30_linear_527_41769)"/>
<path id="Vector_32" d="M16.2437 11.456L16.052 11.5616L15.8686 11.6755L15.6853 11.7867L15.588 11.8422L15.4991 11.9061L14.1487 9.96116L13.5792 9.12761L8.80566 2.21745L9.00294 2.08686L9.20021 1.96183L9.60032 1.71176C9.73091 1.6284 9.85872 1.54782 9.99765 1.4728L10.4061 1.24219L15.5408 10.2335L16.0298 11.067L16.2437 11.456Z" fill="url(#paint31_linear_527_41769)"/>
<path id="Vector_33" d="M17.4615 10.8807L17.028 11.0668L16.9724 11.0918L16.9196 11.1168L16.8196 11.1668L16.6029 11.2669L15.6082 9.35526L14.9858 8.16049L11.1709 0.825219L11.621 0.605718L11.8433 0.494579L11.9572 0.436229L12.0711 0.394553C12.3768 0.255627 12.688 0.116698 12.9908 0L16.8196 9.32747L17.3197 10.5389L17.4615 10.8807Z" fill="url(#paint32_linear_527_41769)"/>
</g>
<g id="&#60;Radial Repeat&#62;_4">
<path id="Vector_34" d="M14.6726 11.556L14.5948 11.581L14.4893 11.3115L14.6726 11.556Z" fill="url(#paint33_linear_527_41769)"/>
<path id="Vector_35" d="M16.8178 9.32766L16.126 4.40969C16.2844 4.30966 16.4427 4.20963 16.6094 4.13184L17.318 10.5446L16.8178 9.32766Z" fill="url(#paint34_linear_527_41769)"/>
<path id="Vector_36" d="M18.8561 3.05127L18.6782 10.8311C18.6171 10.8311 18.556 10.8311 18.4949 10.8311H18.3087L18.2031 3.30412C18.3421 3.24299 18.481 3.18464 18.6227 3.12907L18.8561 3.05127Z" fill="url(#paint35_linear_527_41769)"/>
<path id="Vector_37" d="M21.3487 2.33447L20.0039 10.9479C19.8594 10.9312 19.7261 10.9062 19.5732 10.8895L20.5152 2.51507C20.793 2.45117 21.0709 2.38171 21.3487 2.33447Z" fill="url(#paint36_linear_527_41769)"/>
<path id="Vector_38" d="M24.0221 2.03711L21.3186 11.2395L21.0796 11.1701L20.8379 11.1145L23.0051 2.1038C23.3413 2.0649 23.6748 2.04544 24.0221 2.03711Z" fill="url(#paint37_linear_527_41769)"/>
<path id="Vector_39" d="M26.7509 2.21198L22.5665 11.6839C22.4831 11.6423 22.3942 11.6145 22.308 11.5784L22.0469 11.4755L25.5978 2.07861C25.984 2.10362 26.3675 2.15363 26.7509 2.21198Z" fill="url(#paint38_linear_527_41769)"/>
<path id="Vector_40" d="M29.4681 2.88145L23.7443 12.2839L23.4665 12.1339C23.4192 12.1089 23.3776 12.0783 23.3303 12.0561L23.1914 11.9866L28.1927 2.50635C28.6299 2.60823 29.055 2.73326 29.4681 2.88145Z" fill="url(#paint39_linear_527_41769)"/>
<path id="Vector_41" d="M32.0577 4.04883L24.8558 13.0318L24.7197 12.929C24.6767 12.8916 24.6312 12.8573 24.5835 12.8262L24.3057 12.6317L30.7546 3.38477C31.1973 3.58482 31.6317 3.80617 32.0577 4.04883Z" fill="url(#paint40_linear_527_41769)"/>
<path id="Vector_42" d="M33.994 5.33547C34.1246 5.45772 34.2552 5.58275 34.3774 5.71334L25.8418 13.9072C25.7585 13.8155 25.664 13.7377 25.564 13.6516C25.464 13.5654 25.3889 13.4793 25.2861 13.4015L33.1132 4.70752L33.994 5.33547Z" fill="url(#paint41_linear_527_41769)"/>
<path id="Vector_43" d="M36.2475 7.86952L27.5702 14.2601L27.3229 14.4407L26.7006 14.8964C26.6126 14.7972 26.53 14.6933 26.4533 14.5852L26.3893 14.5102L26.3199 14.4351L26.1865 14.2851L35.1361 6.53027L35.414 6.85536L35.5529 7.02485C35.6045 7.07556 35.6519 7.13039 35.6946 7.18878C35.8974 7.41384 36.0753 7.64446 36.2475 7.86952Z" fill="url(#paint42_linear_527_41769)"/>
<path id="Vector_44" d="M37.82 10.2419L28.6814 15.3043L27.8173 15.7795L27.4228 15.999L27.3228 15.81L27.2088 15.6294L27.0921 15.4488L27.031 15.3544L26.9727 15.2682L28.9732 13.929L29.8067 13.3733L36.828 8.6748L36.9614 8.86652L37.0864 9.06102L37.3365 9.45557C37.4171 9.58616 37.506 9.71119 37.5838 9.84734L37.82 10.2419Z" fill="url(#paint43_linear_527_41769)"/>
<path id="Vector_45" d="M39.0648 12.7873L29.5956 16.5521L28.3814 17.0328L28.0147 17.1829C27.9452 17.0412 27.8868 16.905 27.8229 16.7578L27.7979 16.7022C27.7919 16.6845 27.7834 16.6677 27.7729 16.6522L27.7229 16.5466L27.6201 16.341L29.5651 15.3657L30.7904 14.7461L38.2257 10.9951L38.448 11.4397L38.5619 11.6647L38.6647 11.8898C38.8036 12.1815 38.937 12.4872 39.0648 12.7873Z" fill="url(#paint44_linear_527_41769)"/>
</g>
</g>
<g id="Group 427319103">
<path id="Vector_46" d="M66.3586 20.6086C66.3709 21.7663 66.1527 22.9148 65.7168 23.9873C65.3037 24.9763 64.6907 25.8693 63.9163 26.6102C63.1514 27.3524 62.2466 27.9352 61.2545 28.3246C60.2034 28.7366 59.0825 28.9414 57.9536 28.9275C56.6427 28.9406 55.3426 28.6902 54.1304 28.1912C52.9659 27.7103 51.904 27.0115 51.0018 26.1323C50.1034 25.2554 49.3926 24.2052 48.9123 23.0454C48.4129 21.8371 48.1616 20.5407 48.1732 19.2333C48.1618 17.9376 48.4132 16.653 48.9123 15.4573C49.3945 14.3108 50.1001 13.2719 50.9879 12.4009C51.8808 11.5255 52.9372 10.8344 54.097 10.367C55.3123 9.87933 56.6109 9.63302 57.9203 9.64183C58.861 9.64102 59.797 9.77672 60.6988 10.0447C61.5729 10.2945 62.4039 10.6758 63.1633 11.1756C63.8581 11.6225 64.4701 12.1866 64.9721 12.8427L63.0855 14.8071C62.348 14.0876 61.4964 13.4952 60.5654 13.0538C59.732 12.6707 58.8264 12.4698 57.9091 12.4648C56.9913 12.4561 56.0808 12.6298 55.2307 12.976C54.4254 13.3062 53.6936 13.7925 53.0773 14.407C52.4548 15.013 51.9631 15.7402 51.6325 16.5437C51.2871 17.396 51.1134 18.3081 51.1212 19.2277C51.1162 20.1384 51.3007 21.0401 51.6631 21.8756C52.0107 22.7009 52.5188 23.4489 53.1579 24.0762C53.7944 24.704 54.5426 25.2072 55.364 25.5599C56.2031 25.9194 57.1075 26.1011 58.0203 26.0934C58.6973 26.0978 59.3707 25.9947 60.0153 25.7878C60.6186 25.5961 61.183 25.2988 61.6824 24.9098C62.1468 24.5586 62.5321 24.1137 62.8132 23.6039C63.0838 23.1221 63.2245 22.5782 63.2217 22.0257V21.8673H57.8675V18.9915H66.2252C66.2586 19.1888 66.2891 19.3833 66.3058 19.5722C66.3225 19.7612 66.3364 19.9334 66.3447 20.1057C66.3531 20.278 66.3586 20.4419 66.3586 20.6086Z" fill="#161616"/>
<path id="Vector_47" d="M76.1388 16.9961L76.0055 19.6885C75.2319 19.6197 74.4559 19.7904 73.7827 20.1775C73.1638 20.5348 72.65 21.0488 72.293 21.6678C71.9359 22.2867 71.7482 22.9888 71.7488 23.7034V28.7047H69.0342V17.4518H71.4543L71.6738 20.1441C71.9648 19.5191 72.382 18.961 72.8991 18.5048C73.408 18.0431 73.989 17.6677 74.619 17.3934C75.0933 17.159 75.6105 17.0238 76.1388 16.9961Z" fill="#161616"/>
<path id="Vector_48" d="M85.5444 26.416C85.1004 26.5834 84.6296 26.6681 84.1551 26.666C83.5465 26.69 82.9424 26.5513 82.4051 26.2641C81.8679 25.9769 81.417 25.5517 81.0988 25.0323L89.9122 21.9759C89.5677 20.3977 88.8981 19.1724 87.9033 18.2999C86.8578 17.4117 85.5178 16.9469 84.1468 16.9968C83.058 16.9832 81.984 17.2498 81.0279 17.7709C80.0718 18.292 79.2657 19.0502 78.687 19.9726C78.122 20.8829 77.828 21.9354 77.8396 23.0067C77.8234 24.0831 78.0826 25.1457 78.5926 26.0937C79.0938 26.991 79.8409 27.7265 80.7459 28.2137C81.7775 28.7529 82.9305 29.018 84.094 28.9833C84.7931 28.9811 85.4873 28.8666 86.1501 28.6443C86.8223 28.4325 87.4619 28.1287 88.0506 27.7413L86.817 25.7213C86.4249 26.0075 85.9971 26.241 85.5444 26.416ZM80.5625 23.4152C80.5408 23.2242 80.5306 23.0322 80.532 22.84C80.4972 21.865 80.8407 20.9143 81.4905 20.1865C81.8022 19.846 82.1838 19.5768 82.6092 19.3975C83.0346 19.2181 83.4937 19.1328 83.9551 19.1474C84.6493 19.1077 85.3324 19.3354 85.8639 19.7837C86.2825 20.1524 86.6105 20.6125 86.8225 21.1285L80.5625 23.4152Z" fill="#161616"/>
<path id="Vector_49" d="M103.765 20.3895V28.725H101.04V21.3314C101.043 20.8142 100.861 20.3129 100.528 19.9171C100.206 19.5504 99.6949 19.3614 99.0198 19.3364C98.5571 19.335 98.1004 19.4415 97.6861 19.6475C97.2718 19.8534 96.9112 20.1532 96.633 20.5228C95.9967 21.3175 95.6828 22.3289 95.6828 23.5792V28.725H92.957V17.4526H95.4077L95.6022 19.5643C95.9667 18.8082 96.5468 18.177 97.2693 17.7499C98.1209 17.2484 99.0959 16.9953 100.084 17.0191C101.043 16.9838 101.98 17.3191 102.698 17.9555C103.039 18.2625 103.31 18.6382 103.494 19.0578C103.677 19.4774 103.77 19.9313 103.765 20.3895Z" fill="#161616"/>
<path id="Vector_50" d="M114.78 26.4151C114.33 26.5841 113.854 26.6689 113.374 26.6652C112.764 26.686 112.161 26.545 111.624 26.2565C111.087 25.9681 110.636 25.5425 110.317 25.0231L119.133 21.9667C118.794 20.3885 118.119 19.1632 117.13 18.2907C116.141 17.4183 114.874 16.9876 113.365 16.9876C112.28 16.977 111.21 17.246 110.259 17.7686C109.307 18.2912 108.506 19.05 107.933 19.9717C107.368 20.882 107.074 21.9345 107.086 23.0059C107.068 24.0824 107.328 25.1453 107.839 26.0928C108.338 26.9918 109.085 27.7279 109.992 28.2128C111.019 28.7505 112.167 29.0155 113.326 28.9824C114.028 28.9805 114.725 28.866 115.391 28.6435C116.061 28.4311 116.699 28.1272 117.286 27.7404L116.047 25.7205C115.655 26.0049 115.23 26.2384 114.78 26.4151ZM109.792 23.4143C109.77 23.2234 109.76 23.0313 109.762 22.8392C109.727 21.8641 110.07 20.9134 110.72 20.1857C111.032 19.8448 111.414 19.5754 111.84 19.396C112.266 19.2166 112.726 19.1315 113.187 19.1465C113.883 19.1091 114.567 19.3364 115.102 19.7828C115.518 20.1538 115.845 20.6133 116.06 21.1276L109.792 23.4143Z" fill="#161616"/>
</g>
</g>
<defs>
<linearGradient id="paint0_linear_527_41769" x1="31.2359" y1="17.4392" x2="26.4901" y2="26.3943" gradientUnits="userSpaceOnUse">
<stop stop-color="#00FF01" stop-opacity="0"/>
<stop offset="0.93" stop-color="#006F01" stop-opacity="0.93"/>
<stop offset="1" stop-color="#006401"/>
</linearGradient>
<linearGradient id="paint1_linear_527_41769" x1="32.1281" y1="18.0718" x2="27.113" y2="27.5353" gradientUnits="userSpaceOnUse">
<stop stop-color="#00FF01" stop-opacity="0"/>
<stop offset="0.93" stop-color="#006F01" stop-opacity="0.93"/>
<stop offset="1" stop-color="#006401"/>
</linearGradient>
<linearGradient id="paint2_linear_527_41769" x1="33.1667" y1="18.5916" x2="28.1348" y2="28.0885" gradientUnits="userSpaceOnUse">
<stop stop-color="#00FF01" stop-opacity="0"/>
<stop offset="0.93" stop-color="#006F01" stop-opacity="0.93"/>
<stop offset="1" stop-color="#006401"/>
</linearGradient>
<linearGradient id="paint3_linear_527_41769" x1="34.0205" y1="18.9867" x2="28.9553" y2="28.5448" gradientUnits="userSpaceOnUse">
<stop stop-color="#00FF01" stop-opacity="0"/>
<stop offset="0.93" stop-color="#006F01" stop-opacity="0.93"/>
<stop offset="1" stop-color="#006401"/>
</linearGradient>
<linearGradient id="paint4_linear_527_41769" x1="34.664" y1="19.2025" x2="29.532" y2="28.8911" gradientUnits="userSpaceOnUse">
<stop stop-color="#00FF01" stop-opacity="0"/>
<stop offset="0.93" stop-color="#006F01" stop-opacity="0.93"/>
<stop offset="1" stop-color="#006401"/>
</linearGradient>
<linearGradient id="paint5_linear_527_41769" x1="34.9151" y1="19.4971" x2="29.9582" y2="28.8496" gradientUnits="userSpaceOnUse">
<stop stop-color="#00FF01" stop-opacity="0"/>
<stop offset="0.93" stop-color="#006F01" stop-opacity="0.93"/>
<stop offset="1" stop-color="#006401"/>
</linearGradient>
<linearGradient id="paint6_linear_527_41769" x1="34.787" y1="19.7365" x2="29.9552" y2="28.8528" gradientUnits="userSpaceOnUse">
<stop stop-color="#00FF01" stop-opacity="0"/>
<stop offset="0.93" stop-color="#006F01" stop-opacity="0.93"/>
<stop offset="1" stop-color="#006401"/>
</linearGradient>
<linearGradient id="paint7_linear_527_41769" x1="34.617" y1="19.5807" x2="29.7352" y2="28.7942" gradientUnits="userSpaceOnUse">
<stop stop-color="#00FF01" stop-opacity="0"/>
<stop offset="0.93" stop-color="#006F01" stop-opacity="0.93"/>
<stop offset="1" stop-color="#006401"/>
</linearGradient>
<linearGradient id="paint8_linear_527_41769" x1="34.1059" y1="19.2698" x2="29.1962" y2="28.5334" gradientUnits="userSpaceOnUse">
<stop stop-color="#00FF01" stop-opacity="0"/>
<stop offset="0.93" stop-color="#006F01" stop-opacity="0.93"/>
<stop offset="1" stop-color="#006401"/>
</linearGradient>
<linearGradient id="paint9_linear_527_41769" x1="33.3164" y1="18.8415" x2="28.3957" y2="28.1273" gradientUnits="userSpaceOnUse">
<stop stop-color="#00FF01" stop-opacity="0"/>
<stop offset="0.93" stop-color="#006F01" stop-opacity="0.93"/>
<stop offset="1" stop-color="#006401"/>
</linearGradient>
<linearGradient id="paint10_linear_527_41769" x1="32.336" y1="18.2999" x2="27.4042" y2="27.6051" gradientUnits="userSpaceOnUse">
<stop stop-color="#00FF01" stop-opacity="0"/>
<stop offset="0.93" stop-color="#006F01" stop-opacity="0.93"/>
<stop offset="1" stop-color="#006401"/>
</linearGradient>
<linearGradient id="paint11_linear_527_41769" x1="26.7189" y1="34.0368" x2="10.7897" y2="22.9923" gradientUnits="userSpaceOnUse">
<stop stop-color="#00FF01" stop-opacity="0"/>
<stop offset="0.93" stop-color="#006F01" stop-opacity="0.93"/>
<stop offset="1" stop-color="#006401"/>
</linearGradient>
<linearGradient id="paint12_linear_527_41769" x1="25.8513" y1="35.2317" x2="9.95266" y2="24.2093" gradientUnits="userSpaceOnUse">
<stop stop-color="#00FF01" stop-opacity="0"/>
<stop offset="0.93" stop-color="#006F01" stop-opacity="0.93"/>
<stop offset="1" stop-color="#006401"/>
</linearGradient>
<linearGradient id="paint13_linear_527_41769" x1="25.0513" y1="36.3103" x2="9.19705" y2="25.3185" gradientUnits="userSpaceOnUse">
<stop stop-color="#00FF01" stop-opacity="0"/>
<stop offset="0.93" stop-color="#006F01" stop-opacity="0.93"/>
<stop offset="1" stop-color="#006401"/>
</linearGradient>
<linearGradient id="paint14_linear_527_41769" x1="24.3426" y1="37.2158" x2="8.55508" y2="26.2685" gradientUnits="userSpaceOnUse">
<stop stop-color="#00FF01" stop-opacity="0"/>
<stop offset="0.93" stop-color="#006F01" stop-opacity="0.93"/>
<stop offset="1" stop-color="#006401"/>
</linearGradient>
<linearGradient id="paint15_linear_527_41769" x1="23.7344" y1="37.8996" x2="8.06086" y2="27.03" gradientUnits="userSpaceOnUse">
<stop stop-color="#00FF01" stop-opacity="0"/>
<stop offset="0.93" stop-color="#006F01" stop-opacity="0.93"/>
<stop offset="1" stop-color="#006401"/>
</linearGradient>
<linearGradient id="paint16_linear_527_41769" x1="23.1728" y1="38.2659" x2="7.75483" y2="27.5714" gradientUnits="userSpaceOnUse">
<stop stop-color="#00FF01" stop-opacity="0"/>
<stop offset="0.93" stop-color="#006F01" stop-opacity="0.93"/>
<stop offset="1" stop-color="#006401"/>
</linearGradient>
<linearGradient id="paint17_linear_527_41769" x1="23.6679" y1="38.972" x2="7.26914" y2="27.6023" gradientUnits="userSpaceOnUse">
<stop stop-color="#00FF01" stop-opacity="0"/>
<stop offset="0.93" stop-color="#006F01" stop-opacity="0.93"/>
<stop offset="1" stop-color="#006401"/>
</linearGradient>
<linearGradient id="paint18_linear_527_41769" x1="23.8363" y1="39.0361" x2="7.34309" y2="27.597" gradientUnits="userSpaceOnUse">
<stop stop-color="#00FF01" stop-opacity="0"/>
<stop offset="0.93" stop-color="#006F01" stop-opacity="0.93"/>
<stop offset="1" stop-color="#006401"/>
</linearGradient>
<linearGradient id="paint19_linear_527_41769" x1="23.9235" y1="38.6881" x2="7.58584" y2="27.3573" gradientUnits="userSpaceOnUse">
<stop stop-color="#00FF01" stop-opacity="0"/>
<stop offset="0.93" stop-color="#006F01" stop-opacity="0.93"/>
<stop offset="1" stop-color="#006401"/>
</linearGradient>
<linearGradient id="paint20_linear_527_41769" x1="24.2176" y1="38.1108" x2="7.97716" y2="26.8467" gradientUnits="userSpaceOnUse">
<stop stop-color="#00FF01" stop-opacity="0"/>
<stop offset="0.93" stop-color="#006F01" stop-opacity="0.93"/>
<stop offset="1" stop-color="#006401"/>
</linearGradient>
<linearGradient id="paint21_linear_527_41769" x1="24.6815" y1="37.3606" x2="8.49392" y2="26.1354" gradientUnits="userSpaceOnUse">
<stop stop-color="#00FF01" stop-opacity="0"/>
<stop offset="0.93" stop-color="#006F01" stop-opacity="0.93"/>
<stop offset="1" stop-color="#006401"/>
</linearGradient>
<linearGradient id="paint22_linear_527_41769" x1="12.0949" y1="25.1205" x2="-4.67343" y2="13.4924" gradientUnits="userSpaceOnUse">
<stop stop-color="#00FF01" stop-opacity="0"/>
<stop offset="0.93" stop-color="#006F01" stop-opacity="0.93"/>
<stop offset="1" stop-color="#006401"/>
</linearGradient>
<linearGradient id="paint23_linear_527_41769" x1="3.29245" y1="25.5956" x2="14.4621" y2="9.49133" gradientUnits="userSpaceOnUse">
<stop stop-color="#00FF01" stop-opacity="0"/>
<stop offset="0.93" stop-color="#006F01" stop-opacity="0.93"/>
<stop offset="1" stop-color="#006401"/>
</linearGradient>
<linearGradient id="paint24_linear_527_41769" x1="2.17592" y1="24.8729" x2="13.3761" y2="8.72422" gradientUnits="userSpaceOnUse">
<stop stop-color="#00FF01" stop-opacity="0"/>
<stop offset="0.93" stop-color="#006F01" stop-opacity="0.93"/>
<stop offset="1" stop-color="#006401"/>
</linearGradient>
<linearGradient id="paint25_linear_527_41769" x1="1.2119" y1="24.2839" x2="12.4538" y2="8.06853" gradientUnits="userSpaceOnUse">
<stop stop-color="#00FF01" stop-opacity="0"/>
<stop offset="0.93" stop-color="#006F01" stop-opacity="0.93"/>
<stop offset="1" stop-color="#006401"/>
</linearGradient>
<linearGradient id="paint26_linear_527_41769" x1="0.416584" y1="23.8708" x2="11.739" y2="7.54143" gradientUnits="userSpaceOnUse">
<stop stop-color="#00FF01" stop-opacity="0"/>
<stop offset="0.93" stop-color="#006F01" stop-opacity="0.93"/>
<stop offset="1" stop-color="#006401"/>
</linearGradient>
<linearGradient id="paint27_linear_527_41769" x1="-0.212864" y1="23.7363" x2="11.2846" y2="7.15416" gradientUnits="userSpaceOnUse">
<stop stop-color="#00FF01" stop-opacity="0"/>
<stop offset="0.93" stop-color="#006F01" stop-opacity="0.93"/>
<stop offset="1" stop-color="#006401"/>
</linearGradient>
<linearGradient id="paint28_linear_527_41769" x1="-0.164128" y1="23.1977" x2="10.8888" y2="7.25458" gradientUnits="userSpaceOnUse">
<stop stop-color="#00FF01" stop-opacity="0"/>
<stop offset="0.93" stop-color="#006F01" stop-opacity="0.93"/>
<stop offset="1" stop-color="#006401"/>
</linearGradient>
<linearGradient id="paint29_linear_527_41769" x1="0.178008" y1="22.8145" x2="10.9336" y2="7.30484" gradientUnits="userSpaceOnUse">
<stop stop-color="#00FF01" stop-opacity="0"/>
<stop offset="0.93" stop-color="#006F01" stop-opacity="0.93"/>
<stop offset="1" stop-color="#006401"/>
</linearGradient>
<linearGradient id="paint30_linear_527_41769" x1="52.206" y1="36.1182" x2="10.6672" y2="7.3106" gradientUnits="userSpaceOnUse">
<stop stop-color="#00FF01" stop-opacity="0"/>
<stop offset="0.93" stop-color="#006F01" stop-opacity="0.93"/>
<stop offset="1" stop-color="#006401"/>
</linearGradient>
<linearGradient id="paint31_linear_527_41769" x1="46.0378" y1="29.5052" x2="15.4602" y2="8.29961" gradientUnits="userSpaceOnUse">
<stop stop-color="#00FF01" stop-opacity="0"/>
<stop offset="0.93" stop-color="#006F01" stop-opacity="0.93"/>
<stop offset="1" stop-color="#006401"/>
</linearGradient>
<linearGradient id="paint32_linear_527_41769" x1="42.7987" y1="25.0511" x2="18.884" y2="8.46615" gradientUnits="userSpaceOnUse">
<stop stop-color="#00FF01" stop-opacity="0"/>
<stop offset="0.93" stop-color="#006F01" stop-opacity="0.93"/>
<stop offset="1" stop-color="#006401"/>
</linearGradient>
<linearGradient id="paint33_linear_527_41769" x1="14.7977" y1="11.6227" x2="13.6585" y2="10.8336" gradientUnits="userSpaceOnUse">
<stop stop-color="#00FF01" stop-opacity="0"/>
<stop offset="0.93" stop-color="#006F01" stop-opacity="0.93"/>
<stop offset="1" stop-color="#006401"/>
</linearGradient>
<linearGradient id="paint34_linear_527_41769" x1="21.1218" y1="10.2112" x2="5.98718" y2="-0.28325" gradientUnits="userSpaceOnUse">
<stop stop-color="#00FF01" stop-opacity="0"/>
<stop offset="0.93" stop-color="#006F01" stop-opacity="0.93"/>
<stop offset="1" stop-color="#006401"/>
</linearGradient>
<linearGradient id="paint35_linear_527_41769" x1="13.2157" y1="3.22632" x2="29.1144" y2="14.2515" gradientUnits="userSpaceOnUse">
<stop stop-color="#00FF01" stop-opacity="0"/>
<stop offset="0.93" stop-color="#006F01" stop-opacity="0.93"/>
<stop offset="1" stop-color="#006401"/>
</linearGradient>
<linearGradient id="paint36_linear_527_41769" x1="14.0162" y1="2.14831" x2="29.8704" y2="13.1429" gradientUnits="userSpaceOnUse">
<stop stop-color="#00FF01" stop-opacity="0"/>
<stop offset="0.93" stop-color="#006F01" stop-opacity="0.93"/>
<stop offset="1" stop-color="#006401"/>
</linearGradient>
<linearGradient id="paint37_linear_527_41769" x1="14.7252" y1="1.24245" x2="30.5099" y2="12.1898" gradientUnits="userSpaceOnUse">
<stop stop-color="#00FF01" stop-opacity="0"/>
<stop offset="0.93" stop-color="#006F01" stop-opacity="0.93"/>
<stop offset="1" stop-color="#006401"/>
</linearGradient>
<linearGradient id="paint38_linear_527_41769" x1="15.334" y1="0.558766" x2="31.0076" y2="11.4283" gradientUnits="userSpaceOnUse">
<stop stop-color="#00FF01" stop-opacity="0"/>
<stop offset="0.93" stop-color="#006F01" stop-opacity="0.93"/>
<stop offset="1" stop-color="#006401"/>
</linearGradient>
<linearGradient id="paint39_linear_527_41769" x1="15.8923" y1="0.191844" x2="31.313" y2="10.8863" gradientUnits="userSpaceOnUse">
<stop stop-color="#00FF01" stop-opacity="0"/>
<stop offset="0.93" stop-color="#006F01" stop-opacity="0.93"/>
<stop offset="1" stop-color="#006401"/>
</linearGradient>
<linearGradient id="paint40_linear_527_41769" x1="15.4005" y1="-0.513488" x2="31.7993" y2="10.859" gradientUnits="userSpaceOnUse">
<stop stop-color="#00FF01" stop-opacity="0"/>
<stop offset="0.93" stop-color="#006F01" stop-opacity="0.93"/>
<stop offset="1" stop-color="#006401"/>
</linearGradient>
<linearGradient id="paint41_linear_527_41769" x1="15.2307" y1="-0.577217" x2="31.724" y2="10.8619" gradientUnits="userSpaceOnUse">
<stop stop-color="#00FF01" stop-opacity="0"/>
<stop offset="0.93" stop-color="#006F01" stop-opacity="0.93"/>
<stop offset="1" stop-color="#006401"/>
</linearGradient>
<linearGradient id="paint42_linear_527_41769" x1="47.4477" y1="22.1705" x2="31.11" y2="10.8425" gradientUnits="userSpaceOnUse">
<stop stop-color="#00FF01" stop-opacity="0"/>
<stop offset="0.93" stop-color="#006F01" stop-opacity="0.93"/>
<stop offset="1" stop-color="#006401"/>
</linearGradient>
<linearGradient id="paint43_linear_527_41769" x1="50.1649" y1="24.843" x2="33.9217" y2="13.5789" gradientUnits="userSpaceOnUse">
<stop stop-color="#00FF01" stop-opacity="0"/>
<stop offset="0.93" stop-color="#006F01" stop-opacity="0.93"/>
<stop offset="1" stop-color="#006401"/>
</linearGradient>
<linearGradient id="paint44_linear_527_41769" x1="52.599" y1="27.5939" x2="36.4113" y2="16.3688" gradientUnits="userSpaceOnUse">
<stop stop-color="#00FF01" stop-opacity="0"/>
<stop offset="0.93" stop-color="#006F01" stop-opacity="0.93"/>
<stop offset="1" stop-color="#006401"/>
</linearGradient>
</defs>
</svg>
